<?xml version="1.0" encoding="utf-8"?>
<!-- Generator: Adobe Illustrator 21.1.0, SVG Export Plug-In . SVG Version: 6.00 Build 0)  -->
<svg version="1.1" id="Layer_1" xmlns="http://www.w3.org/2000/svg" xmlns:xlink="http://www.w3.org/1999/xlink" x="0px" y="0px"
	 viewBox="0 0 122.1 45.2" style="enable-background:new 0 0 122.1 45.2;" xml:space="preserve">
<style type="text/css">
	.st0{fill:#3BB24E;}
	.st1{fill:#010101;}
</style>
<g>
	<path class="st0" d="M13.4,0c0,3,0,5.9,0,8.9c0.1-0.3,0.1-0.5,0.2-0.7c0.1-0.4,0.3-0.9,0.4-1.3c0.2-0.7,0.5-1.3,0.7-2
		c0.3-0.8,0.7-1.6,1.1-2.3c0.6-1,0.8-1.4,1.2-2c0.2,0.1,0.5,0.2,0.7,0.3c-0.1,0.2-0.4,0.7-0.5,0.9c-0.4,0.6-0.7,1.2-1,1.8
		c-0.6,1.1-1.2,2.6-1.6,4.1c-0.2,0.8-0.5,1.6-0.6,2.5h0c0.3-0.5,0.6-0.9,0.8-1.4c0.5-0.8,1.1-1.7,1.8-2.4c1.6-1.8,2.2-2.4,4.1-3.9
		c0.2,0.2,0.4,0.3,0.6,0.5c-0.5,0.4-1.4,1.1-2.4,2c-1.6,1.6-3,3.4-4.2,5.4c-0.6,1-0.8,1.4-1,2c0,0,2.1-1.8,9.1-7.9
		c0.3,0.3,0.5,0.6,0.8,1c0.6,0.9,1.1,1.8,1.5,2.8c0.1,0.3,0.3,0.7,0.4,1.1c-0.2,0.1-0.4,0.2-0.7,0.3c-0.7,0.3-1.4,0.6-2.1,1
		c-0.7,0.3-1.3,0.5-2,0.8c-1.3,0.4-2.5,0.8-3.9,1.1c-1,0.2-1.9,0.3-2.9,0.4c-0.4,0-0.9,0.1-1.3,0c-1.2-0.1-2.3-0.2-3.5-0.5
		c-1.5-0.3-3-0.8-4.3-1.3c-0.3-0.1-1.8-0.7-2.9-1.2C1.4,9.8,1,9.6,0.5,9.4C1.1,7.6,1.8,6,3.2,4.5c3.1,2.7,6,5.2,9.1,7.9
		c-0.2-0.6-0.3-1-0.9-2c-0.2-0.3-0.4-0.7-0.7-1.1c-1.4-2.1-3-3.9-3.6-4.4c-0.8-0.8-1.6-1.5-2.3-2C5,2.8,5,2.7,5.4,2.5
		c0.3,0.2,1.1,0.8,2,1.7c1.3,1.2,2.5,2.6,3.5,4.1c0.4,0.6,0.8,1.2,1.2,1.9c-0.1-0.4-0.2-0.9-0.5-1.9c-0.5-1.7-1.1-3.3-1.8-4.8
		c-0.5-1-1.2-2.2-1.5-2.6C8.5,0.8,8.8,0.7,9,0.6c0.3,0.4,0.5,0.8,0.8,1.3c0.8,1.3,1.4,2.7,2,4.2c0.2,0.7,0.4,1.4,0.7,2.1
		c0.1,0.2,0.1,0.5,0.2,0.7c0-3,0-5.9,0-8.9C13,0,13.1,0,13.4,0 M25.7,10.1c-0.2,0.1-0.3,0.2-0.5,0.3c-0.6,0.3-1.2,0.6-1.8,0.8
		c-1.8,0.8-3.8,1.5-5.9,2c-0.7,0.2-1.4,0.3-2.1,0.4c-0.4,0-0.7,0.1-1.1,0.1c0.2,0.1,0.3,0.1,0.5,0.2c0.5,0.2,0.9,0.3,1.4,0.5
		c1.3,0.4,2.9,0.6,4.5,0.8c0.7,0.1,1.4,0.1,2,0.2c0.5,0.1,1,0.1,1.5,0.1c0.5,0,1,0,1.5,0.1c0.1-0.7,0.2-1.4,0.2-2.2
		c0-0.8-0.1-1.8-0.2-2.4C25.8,10.7,25.8,10.4,25.7,10.1 M0.3,10.2c-0.1,0.5-0.2,1.1-0.3,1.7c0,0.4-0.1,0.9,0,1.3
		c0,0.9,0.1,1.7,0.2,2.3c0.2,0,0.5,0,0.7,0c0.4,0,0.8,0,1.3-0.1c0.3,0,0.6,0,0.9-0.1c0.2,0,0.4,0,0.5,0c0.4,0,0.8-0.1,1.2-0.1
		c1.7-0.2,3.7-0.5,4.9-0.8c1.3-0.4,1.7-0.6,1.9-0.7c-1.9-0.1-4.2-0.7-6.1-1.3C5.1,12.2,4.6,12,4,11.8c-0.6-0.2-1.2-0.5-1.8-0.8
		C1.6,10.8,1,10.5,0.3,10.2 M11.6,14.6c-3.1,1.2-7.4,1.6-11.2,1.7c0.3,1.3,1,2.9,2,4.3c1.2-0.5,2.4-1.1,3.5-1.7
		c1.4-0.7,2.6-1.6,3.8-2.5c0.3-0.2,0.5-0.5,0.8-0.7c0.2-0.2,0.3-0.3,0.5-0.5C11.3,15,11.4,14.9,11.6,14.6 M14.4,14.6
		c0.6,0.7,1.3,1.3,2,1.8c2.1,1.7,4.6,3,7.2,4.2c0.8-1.2,1.6-2.6,2-4.3c-1.4,0-2.7-0.1-4-0.2c-1.4-0.1-2.9-0.3-4.2-0.6
		c-0.7-0.1-1.4-0.3-2.1-0.5C14.9,14.8,14.7,14.7,14.4,14.6 M11.9,15.4c-0.4,0.5-0.9,0.8-1.3,1.2C9.9,17.3,9,17.9,8,18.5
		c-0.8,0.5-1.6,1-2.5,1.4c-1.1,0.6-2.3,1.1-2.6,1.3c1.2,1.4,2.5,2.4,3.9,3.2c0.5-0.7,0.9-1.2,1.3-1.9c0.9-1.5,1.9-3.1,2.7-4.7
		c0.3-0.6,0.6-1.3,0.9-1.9C11.8,15.8,11.9,15.6,11.9,15.4 M14.1,15.5c0.1,0.3,0.3,0.6,0.4,0.9c0.3,0.7,0.7,1.4,1,2.1
		c0.8,1.5,1.6,3,2.5,4.4c0.4,0.6,0.7,1.1,1.2,1.7c0.9-0.5,1.6-1,2.4-1.6c0.3-0.2,1.2-1.1,1.5-1.6c-0.7-0.3-1.3-0.6-2-0.9
		c-1.9-1-3.6-2-5.3-3.3C15.2,16.5,14.5,16,14.1,15.5 M12.6,15.8c-0.4,0.7-0.7,1.5-1.1,2.2c-0.3,0.5-0.5,1-0.8,1.5
		c-0.6,1.1-1.2,2.2-1.9,3.2c-0.3,0.5-0.7,1-1,1.5c-0.1,0.2-0.3,0.4-0.4,0.6c0,0,0,0,0,0c1.3,0.6,3.2,1.2,5.1,1.2
		C12.6,22.6,12.6,19.2,12.6,15.8 M13.4,15.8c0,3.4,0,6.8,0,10.2c2-0.1,3.7-0.6,5.1-1.2v0c-0.1-0.2-0.3-0.4-0.4-0.6
		c-0.2-0.4-0.5-0.7-0.7-1.1c-0.2-0.3-0.4-0.6-0.6-0.9c-0.6-0.9-1.1-1.9-1.6-2.8c-0.2-0.3-0.3-0.6-0.5-1c-0.2-0.4-0.4-0.8-0.6-1.2
		C13.9,16.8,13.6,16.3,13.4,15.8"/>
	<path class="st1" d="M29.2,44.2l7.3-15.7c0.2-0.4,0.4-0.6,0.9-0.6h0c0.4,0,0.7,0.2,0.9,0.6l7.2,15.7c0.1,0.1,0.1,0.3,0.1,0.4
		c0,0.3-0.3,0.6-0.6,0.6c-0.3,0-0.5-0.2-0.6-0.5l-2-4.4h-10l-2,4.4c-0.1,0.3-0.3,0.5-0.6,0.5c-0.3,0-0.6-0.2-0.6-0.5
		C29.1,44.5,29.2,44.4,29.2,44.2z M41.8,39.1l-4.5-9.8l-4.5,9.8H41.8z M46.1,28.9c0-0.1-0.1-0.2-0.1-0.3c0-0.3,0.3-0.7,0.7-0.7
		c0.3,0,0.6,0.3,0.7,0.6l5.2,14.7l4.8-14.7c0.1-0.3,0.3-0.5,0.6-0.5h0c0.3,0,0.5,0.2,0.6,0.5l4.8,14.7l5.2-14.7
		c0.1-0.3,0.3-0.5,0.6-0.5c0.3,0,0.6,0.3,0.6,0.6c0,0.1,0,0.2-0.1,0.3l-5.7,15.8c-0.1,0.3-0.3,0.6-0.7,0.6h0c-0.3,0-0.6-0.2-0.7-0.6
		L58,30.4l-4.8,14.3c-0.1,0.3-0.3,0.6-0.7,0.6h0c-0.3,0-0.5-0.2-0.7-0.6L46.1,28.9z M70.5,44.2l7.3-15.7c0.2-0.4,0.4-0.6,0.9-0.6h0
		c0.4,0,0.7,0.2,0.9,0.6l7.2,15.7c0.1,0.1,0.1,0.3,0.1,0.4c0,0.3-0.3,0.6-0.6,0.6c-0.3,0-0.5-0.2-0.6-0.5l-2-4.4h-10l-2,4.4
		c-0.1,0.3-0.3,0.5-0.6,0.5c-0.3,0-0.6-0.2-0.6-0.5C70.4,44.5,70.4,44.4,70.5,44.2z M83.1,39.1l-4.5-9.8l-4.5,9.8H83.1z M90.1,28.7
		c0-0.3,0.3-0.6,0.6-0.6h6.5c2.1,0,3.8,0.7,4.8,1.7c0.8,0.8,1.3,1.9,1.3,3.2v0c0,2.8-2.1,4.5-5,4.9l4.8,6.3c0.1,0.1,0.2,0.3,0.2,0.4
		c0,0.3-0.3,0.7-0.7,0.7c-0.2,0-0.4-0.1-0.6-0.3L97,38h-5.6v6.5c0,0.3-0.3,0.6-0.6,0.6c-0.3,0-0.6-0.3-0.6-0.6V28.7z M97.1,36.8
		c2.8,0,5-1.4,5-3.9v0c0-2.3-1.8-3.7-4.9-3.7h-5.8v7.7H97.1z M107.4,28.7c0-0.3,0.3-0.6,0.6-0.6h5c5.3,0,9,3.7,9,8.5v0
		c0,4.8-3.7,8.5-9,8.5h-5c-0.3,0-0.6-0.3-0.6-0.6V28.7z M113.1,43.9c4.7,0,7.7-3.2,7.7-7.3v0c0-4-3-7.3-7.7-7.3h-4.4v14.7H113.1z
		 M31.2,20.1c0,1,0.8,1.9,1.9,1.9h8.8c0.9,0,1.7-0.8,1.7-1.7c0-0.9-0.8-1.7-1.7-1.7h-6.9V6.7c0-1-0.8-1.9-1.9-1.9
		c-1,0-1.9,0.8-1.9,1.9V20.1z M47.5,22h9.5c0.9,0,1.7-0.7,1.7-1.7c0-0.9-0.8-1.7-1.7-1.7h-7.7v-3.6h6.5c0.9,0,1.7-0.7,1.7-1.7
		c0-0.9-0.8-1.7-1.7-1.7h-6.5V8.3H57c0.9,0,1.7-0.7,1.7-1.7C58.6,5.8,57.9,5,57,5h-9.4c-1,0-1.9,0.8-1.9,1.9v13.3
		C45.7,21.2,46.5,22,47.5,22 M71.3,14.9h-4.7L69,9.3L71.3,14.9z M77.4,20.4c0-0.2-0.1-0.5-0.2-0.8L71.3,6.2
		c-0.4-0.9-1.1-1.5-2.2-1.5h-0.2c-1,0-1.8,0.6-2.2,1.5l-5.9,13.4c-0.1,0.3-0.2,0.5-0.2,0.8c0,1,0.8,1.7,1.7,1.7
		c0.8,0,1.4-0.4,1.7-1.2l1.2-2.8h7.5l1.1,2.7c0.3,0.8,0.9,1.3,1.8,1.3C76.6,22.2,77.4,21.4,77.4,20.4 M79.7,20.3
		c0,1,0.8,1.9,1.9,1.9c1,0,1.9-0.8,1.9-1.9v-4.9H90c0.9,0,1.7-0.8,1.7-1.7c0-0.9-0.8-1.7-1.7-1.7h-6.6V8.4h7.7
		c0.9,0,1.7-0.8,1.7-1.7C92.8,5.8,92,5,91.1,5h-9.5c-1,0-1.9,0.8-1.9,1.9V20.3z"/>
</g>
</svg>
