<svg xmlns="http://www.w3.org/2000/svg" viewBox="0 0 104.89 29.36"><defs><style>.cls-1{fill:#3fc639;}</style></defs><title>logo_krivky</title><g id="Vrstva_2" data-name="Vrstva 2"><g id="Vrstva_1-2" data-name="Vrstva 1"><path class="cls-1" d="M15.12,0c0,3.36,0,6.7,0,10.05l.23-.83.45-1.48c.22-.76.53-1.51.82-2.21A23.18,23.18,0,0,1,17.86,2.9c.66-1.18.88-1.53,1.32-2.2L20,1l-.61,1c-.41.66-.79,1.38-1.16,2.07a26.1,26.1,0,0,0-1.8,4.58,24.71,24.71,0,0,0-.71,2.78h0c.31-.52.62-1,.95-1.53a25.22,25.22,0,0,1,2-2.71,26.17,26.17,0,0,1,4.62-4.4l.71.55a22.92,22.92,0,0,0-2.67,2.25,27.56,27.56,0,0,0-4.72,6.06,10.21,10.21,0,0,0-1.1,2.29L25.78,5.06c.29.37.61.73.88,1.12a14.79,14.79,0,0,1,1.71,3.19c.14.36.29.79.41,1.19L28,11c-.8.38-1.57.73-2.36,1.1s-1.49.59-2.23.86A39.41,39.41,0,0,1,19,14.17a27.27,27.27,0,0,1-3.32.5,11.85,11.85,0,0,1-1.5,0,25.49,25.49,0,0,1-3.91-.54,34.88,34.88,0,0,1-4.88-1.42c-.31-.11-2-.77-3.32-1.4L.57,10.59a14.64,14.64,0,0,1,3-5.52c3.53,3.06,6.73,5.84,10.26,8.87a10.39,10.39,0,0,0-1.07-2.28c-.21-.34-.49-.82-.75-1.23A28.49,28.49,0,0,0,8,5.52a21.66,21.66,0,0,0-2.61-2.2l.7-.54A22.61,22.61,0,0,1,8.33,4.66a32.83,32.83,0,0,1,4,4.65c.49.68.89,1.41,1.34,2.11-.1-.47-.21-1-.52-2.17a28.48,28.48,0,0,0-2.07-5.36C10.45,2.7,9.66,1.42,9.38,1L10.2.7c.32.49.59.95.87,1.42a28.2,28.2,0,0,1,2.21,4.76c.28.75.5,1.54.74,2.33l.22.84q0-5,0-10h.89M29,11.44l-.58.29c-.64.35-1.32.64-2,.94a37.13,37.13,0,0,1-6.65,2.23c-.78.18-1.61.34-2.42.46l-1.22.14c.21.1.37.16.56.23a15.79,15.79,0,0,0,1.62.53,31.47,31.47,0,0,0,5,.9l2.29.19c.58.07,1.16.07,1.74.1s1.14.05,1.74.06A15.47,15.47,0,0,0,29.35,15a15,15,0,0,0-.18-2.67c-.05-.31-.1-.56-.18-.9m-28.65,0a14.11,14.11,0,0,0-.3,1.93A15,15,0,0,0,0,14.91a15.25,15.25,0,0,0,.27,2.61l.83,0,1.43-.06,1-.07.6,0c.43-.05.87-.07,1.3-.12A36.68,36.68,0,0,0,11,16.27a12.81,12.81,0,0,0,2.19-.77A30.91,30.91,0,0,1,6.36,14c-.61-.2-1.21-.42-1.79-.65s-1.39-.57-2.06-.86-1.37-.63-2.16-1m12.77,5C9.62,17.87,4.8,18.32.47,18.4a14.86,14.86,0,0,0,2.29,4.86c1.38-.61,2.7-1.28,4-2A28.74,28.74,0,0,0,11,18.41l.92-.78.56-.51a8,8,0,0,0,.6-.62m3.08,0a16.68,16.68,0,0,0,2.25,2,39.28,39.28,0,0,0,8.15,4.72,15.37,15.37,0,0,0,2.29-4.87c-1.56,0-3.08-.11-4.55-.25a43.85,43.85,0,0,1-4.75-.67,19.88,19.88,0,0,1-2.39-.61l-1-.37m-2.73.93c-.49.51-1,.95-1.43,1.33a24.42,24.42,0,0,1-3,2.16c-.9.58-1.8,1.09-2.78,1.61C5,23.2,3.68,23.79,3.31,24a14.89,14.89,0,0,0,4.36,3.61c.53-.74,1-1.38,1.44-2.1,1.07-1.71,2.1-3.46,3-5.32.36-.71.7-1.45,1.07-2.18l.26-.56m2.4,0,.46,1c.36.8.77,1.58,1.17,2.34.9,1.7,1.83,3.34,2.85,4.91.43.66.84,1.29,1.34,1.93a15.52,15.52,0,0,0,2.65-1.85A18.9,18.9,0,0,0,26,24c-.76-.3-1.51-.68-2.21-1a36.75,36.75,0,0,1-5.94-3.7,23,23,0,0,1-2-1.8m-1.63.42L13,20.35,12.15,22c-.71,1.24-1.35,2.48-2.13,3.64-.38.56-.74,1.12-1.11,1.67L8.46,28h0a15,15,0,0,0,5.79,1.38q0-5.75,0-11.51m.87,0c0,3.82,0,7.69,0,11.51A15,15,0,0,0,20.89,28h0c-.15-.22-.32-.43-.47-.65-.28-.4-.54-.81-.81-1.21s-.44-.68-.66-1c-.64-1-1.28-2.11-1.82-3.18l-.55-1.08a15.38,15.38,0,0,1-.69-1.38c-.24-.52-.55-1.08-.76-1.62"/><path d="M35.16,7.59a2.11,2.11,0,0,1,4.22,0V21H47.2a1.92,1.92,0,1,1,0,3.84H37.27a2.09,2.09,0,0,1-2.11-2.11ZM53.63,24.84H64.4A1.87,1.87,0,0,0,66.29,23a1.9,1.9,0,0,0-1.89-1.89H55.71v-4H63a1.87,1.87,0,0,0,1.89-1.86A1.9,1.9,0,0,0,63,13.3H55.71V9.4h8.55a1.87,1.87,0,0,0,1.89-1.86,1.9,1.9,0,0,0-1.89-1.89H53.63a2.09,2.09,0,0,0-2.11,2.11v15a2.09,2.09,0,0,0,2.11,2.11M77.82,10.47,75.16,16.8h5.32ZM87.35,23a2,2,0,0,1-2,2,2.15,2.15,0,0,1-2-1.45l-1.29-3H73.59l-1.34,3.15A2.07,2.07,0,0,1,70.3,25a1.94,1.94,0,0,1-1.95-2,2.24,2.24,0,0,1,.25-.9L75.29,7a2.61,2.61,0,0,1,2.47-1.67H78A2.57,2.57,0,0,1,80.45,7l6.69,15.1a2.06,2.06,0,0,1,.22.85m2.76-.08a2.11,2.11,0,1,0,4.22,0V17.41h7.4a1.92,1.92,0,1,0,0-3.84h-7.4V9.49H103a1.92,1.92,0,0,0,0-3.84H92.23a2.09,2.09,0,0,0-2.11,2.11Z"/></g></g></svg>