<?xml version="1.0" standalone="no"?>
<!DOCTYPE svg PUBLIC "-//W3C//DTD SVG 20010904//EN"
 "http://www.w3.org/TR/2001/REC-SVG-20010904/DTD/svg10.dtd">
<svg version="1.0" xmlns="http://www.w3.org/2000/svg"
 width="260.000000pt" height="260.000000pt" viewBox="0 0 260.000000 260.000000"
 preserveAspectRatio="xMidYMid meet">
<metadata>
Created by potrace 1.11, written by Peter Selinger 2001-2013
</metadata>
<g transform="translate(0.000000,260.000000) scale(0.100000,-0.100000)"
fill="#000000" stroke="none">
<path d="M0 1300 l0 -1300 1300 0 1300 0 0 1300 0 1300 -1300 0 -1300 0 0
-1300z m1918 1087 c23 -24 39 -103 28 -133 -5 -14 -9 -13 -27 10 -28 35 -53
47 -113 55 l-51 7 41 42 c49 49 88 55 122 19z m-129 -157 c47 -23 85 -67 101
-115 18 -55 8 -60 -40 -20 -60 50 -92 65 -139 65 l-41 0 22 45 c25 51 39 55
97 25z m-94 -154 c54 -23 106 -67 137 -115 15 -25 28 -49 28 -53 0 -5 -20 5
-45 22 -59 40 -116 60 -175 60 l-48 0 21 50 c23 54 30 57 82 36z m-55 -166
c22 -11 56 -35 76 -53 38 -32 94 -103 94 -118 0 -4 -22 7 -50 26 -59 40 -137
67 -197 69 -23 0 -43 2 -43 2 0 1 9 22 20 48 24 53 39 57 100 26z m-37 -172
c63 -32 105 -67 138 -114 16 -23 29 -45 29 -47 0 -3 -30 10 -67 29 -81 41
-160 64 -226 64 l-48 0 27 51 c28 50 29 51 67 45 21 -4 58 -16 80 -28z m-40
-162 c62 -30 143 -98 169 -144 l18 -30 -63 33 c-84 45 -165 67 -269 74 l-88 6
32 49 32 48 56 -5 c31 -2 82 -17 113 -31z m-118 -158 c111 -37 250 -141 290
-219 l16 -30 -49 36 c-116 83 -305 148 -434 149 l-77 1 47 48 c46 47 47 47 97
41 27 -4 77 -15 110 -26z m-203 -142 c218 -55 400 -153 580 -310 32 -27 56
-52 54 -53 -2 -2 -36 17 -76 43 -156 100 -401 200 -602 243 -79 17 -243 39
-305 42 -10 0 21 9 69 19 47 10 94 23 105 29 28 16 72 13 175 -13z m-554 -57
c284 -30 664 -156 1032 -340 314 -158 530 -318 530 -395 0 -24 -33 -54 -59
-54 -11 0 -10 3 4 13 13 10 16 21 11 41 -26 106 -705 416 -1170 536 -297 76
-562 92 -598 37 -6 -8 -19 0 -44 26 -77 83 -23 125 184 146 7 0 56 -4 110 -10z
m65 -250 c285 -43 730 -211 980 -371 83 -54 117 -89 117 -121 0 -18 -4 -17
-32 12 -108 110 -812 351 -1027 351 -58 0 -67 4 -161 62 -76 48 -96 64 -82 70
27 10 126 9 205 -3z m366 -285 c131 -44 267 -114 312 -160 39 -42 40 -42 -91
6 -106 39 -232 70 -287 70 -38 0 -43 3 -67 44 -14 24 -38 54 -53 66 l-28 21
55 -6 c30 -3 102 -22 159 -41z m50 -194 c26 -12 68 -41 92 -66 24 -24 41 -44
39 -44 -3 0 -34 9 -70 20 -37 11 -94 20 -132 20 l-68 0 0 51 0 52 45 -6 c25
-4 67 -16 94 -27z m-9 -195 c47 -33 49 -46 14 -74 -59 -46 -144 -2 -144 75 l0
37 45 -5 c27 -3 62 -17 85 -33z"/>
</g>
</svg>
