<svg xmlns="http://www.w3.org/2000/svg" width="9" height="16" viewBox="0 0 9 16">
    <path fill="#333" fill-rule="evenodd" d="M2.007 15.649L8.656 8.85c.057-.058.106-.12.15-.187l.015-.03c.035-.057.067-.117.092-.18.003-.004.003-.01.005-.014a1.226 1.226 0 0 0 0-.876c-.002-.005-.002-.01-.005-.016a1.242 1.242 0 0 0-.09-.175c-.006-.011-.01-.024-.018-.034a1.187 1.187 0 0 0-.15-.188L2.008.352a1.155 1.155 0 0 0-1.663 0 1.221 1.221 0 0 0 0 1.7L6.164 8 .344 13.949a1.208 1.208 0 0 0-.344.85c0 .32.123.623.345.85a1.158 1.158 0 0 0 1.662 0"/>
</svg>
