<svg xmlns="http://www.w3.org/2000/svg" xmlns:xlink="http://www.w3.org/1999/xlink" width="218" height="62" viewBox="0 0 218 62">
    <defs>
        <path id="a" d="M12.557 24H.54V.121h12.017V24z"/>
        <path id="c" d="M12.327 24H.349V.121h11.978V24z"/>
    </defs>
    <g fill="none" fill-rule="evenodd">
        <path fill="#32B34A" d="M31.374 1.01c0 6.961.003 13.892.003 20.853.158-.589.315-1.135.472-1.726.306-1.025.617-2.048.926-3.077.461-1.584 1.106-3.123 1.696-4.59.759-1.883 1.625-3.758 2.572-5.449 1.377-2.454 1.832-3.165 2.731-4.564.573.182 1.152.4 1.714.595-.297.498-1.043 1.7-1.274 2.073-.851 1.378-1.63 2.856-2.402 4.303-1.424 2.665-2.707 6.084-3.735 9.5-.553 1.831-1.117 3.787-1.47 5.768h.013c.65-1.074 1.295-2.079 1.967-3.169 1.251-1.894 2.63-3.893 4.145-5.62 3.677-4.196 5.069-5.633 9.575-9.13.495.367.991.756 1.468 1.132-1.229.84-3.357 2.551-5.54 4.662a57.156 57.156 0 0 0-9.792 12.576c-1.377 2.387-1.805 3.267-2.282 4.762.018 0 4.993-4.303 21.312-18.405.604.776 1.258 1.515 1.831 2.327a30.518 30.518 0 0 1 3.553 6.612c.293.75.603 1.646.842 2.48-.515.27-1.052.541-1.568.812-1.654.793-3.262 1.516-4.903 2.274-1.542.6-3.1 1.231-4.629 1.793a81.487 81.487 0 0 1-9.136 2.586c-2.262.497-4.454.81-6.891 1.045-.851.08-2.222.121-3.108.072-2.88-.162-5.391-.556-8.119-1.125-3.564-.746-6.981-1.795-10.118-2.95-.644-.222-4.119-1.592-6.877-2.903-1.041-.53-2.117-1.038-3.158-1.568 1.279-4.155 3.111-7.835 6.251-11.455 7.323 6.35 13.97 12.118 21.287 18.41-.555-1.503-.785-2.339-2.211-4.733-.429-.71-1.013-1.692-1.551-2.542-3.177-4.94-7.106-9.03-8.381-10.19-1.985-1.935-3.765-3.397-5.42-4.569.443-.352.585-.455 1.445-1.115a47.43 47.43 0 0 1 4.666 3.894c3.01 2.872 5.76 6.17 8.246 9.641 1.011 1.408 1.853 2.92 2.788 4.376-.199-.969-.439-2.158-1.083-4.497a59.184 59.184 0 0 0-4.303-11.123c-1.252-2.45-2.896-5.113-3.463-6.007.533-.188 1.156-.417 1.691-.604.659 1.018 1.215 1.961 1.808 2.955 1.805 3.015 3.298 6.345 4.593 9.87.581 1.564 1.044 3.2 1.533 4.838l.461 1.741c-.002-6.943-.005-13.89-.013-20.834.784-.015 1.087-.022 1.838-.006M60.162 24.731c.162.71.261 1.235.365 1.877.25 1.418.416 3.617.367 5.53a32.052 32.052 0 0 1-.55 5.212 80.107 80.107 0 0 1-3.6-.13c-1.202-.069-2.42-.065-3.616-.207l-4.75-.389c-3.527-.375-7.26-.97-10.42-1.863-1.185-.336-2.307-.668-3.37-1.098-.395-.16-.724-.273-1.157-.487.844-.1 1.695-.196 2.54-.293a63.167 63.167 0 0 0 5.015-.952c4.971-1.137 9.545-2.77 13.795-4.636 1.435-.628 2.843-1.228 4.173-1.955.402-.203.806-.405 1.208-.609M.73 24.767a74.575 74.575 0 0 0 4.475 2.166 92.794 92.794 0 0 0 4.267 1.79c1.216.47 2.45.922 3.723 1.34 4.357 1.43 9.837 2.802 14.23 3.106-.562.257-1.45.708-4.535 1.59-2.957.848-7.572 1.537-11.554 1.95-.89.093-1.8.131-2.699.24-.415.03-.828.053-1.243.085-.715.05-1.426.088-2.143.14-.99.032-1.984.088-2.974.119L.56 37.35c-.286-1.378-.51-3.354-.555-5.423a31.015 31.015 0 0 1 .11-3.15 29.08 29.08 0 0 1 .617-4.01M27.216 35.234c-.48.56-.807.865-1.238 1.28-.377.368-.776.701-1.157 1.07-.636.523-1.26 1.085-1.9 1.61a59.817 59.817 0 0 1-8.976 5.966 115.907 115.907 0 0 1-8.225 4.074C3.332 45.947 1.776 42.228.98 39.165c8.986-.169 18.975-1.09 26.236-3.93M33.608 35.234c.688.253 1.374.51 2.06.762 1.57.53 3.25.926 4.958 1.273 3.135.64 6.474 1.074 9.858 1.383 3.064.284 6.206.433 9.444.513-1.071 4.018-2.772 7.211-4.758 10.095-6.177-2.796-11.89-5.869-16.902-9.797-1.64-1.286-3.25-2.635-4.66-4.229M27.936 37.156c-.18.383-.358.771-.538 1.155-.762 1.51-1.462 3.034-2.212 4.513-1.942 3.856-4.082 7.49-6.305 11.035-.93 1.484-1.893 2.816-2.986 4.356-3.293-1.848-6.271-4.143-9.035-7.499.78-.367 3.522-1.599 6.16-2.987 2.042-1.07 3.913-2.123 5.777-3.332 2.156-1.398 4.281-2.812 6.17-4.49.888-.788 1.947-1.688 2.969-2.75M32.912 37.161c1.138 1.201 2.75 2.548 4.212 3.74 3.789 2.918 7.853 5.426 12.323 7.681 1.468.74 3.017 1.52 4.59 2.145-.808 1.016-2.858 3.086-3.552 3.666-1.676 1.41-3.43 2.72-5.506 3.84-1.03-1.33-1.884-2.653-2.774-4.013-2.125-3.25-4.047-6.659-5.916-10.185-.837-1.582-1.688-3.19-2.425-4.856l-.952-2.018"/>
        <g transform="translate(17 37.903)">
            <mask id="b" fill="#fff">
                <use xlink:href="#a"/>
            </mask>
            <path fill="#32B34A" d="M12.536.121c.01 7.96.015 15.921.021 23.88-4.476-.119-8.939-1.373-12.017-2.856.001-.002.005-.009.005-.015.31-.446.62-.889.928-1.337.782-1.13 1.528-2.295 2.31-3.458 1.606-2.4 2.942-4.979 4.411-7.542l1.852-3.476c.831-1.73 1.662-3.463 2.49-5.196" mask="url(#b)"/>
        </g>
        <g transform="translate(31 37.903)">
            <mask id="d" fill="#fff">
                <use xlink:href="#c"/>
            </mask>
            <path fill="#32B34A" d="M.349.121C.805 1.242 1.435 2.41 1.934 3.483c.45.983.903 1.957 1.436 2.867.379.747.765 1.498 1.145 2.25 1.126 2.218 2.454 4.464 3.784 6.591.44.714.918 1.403 1.36 2.118.572.83 1.113 1.676 1.687 2.502.313.455.666.894.98 1.347v.004C8.972 22.693 4.967 23.847.36 24c0-7.922-.01-15.956-.01-23.879" mask="url(#d)"/>
        </g>
        <path fill="#231F20" d="M72.944 48.142a4.345 4.345 0 0 0 4.38 4.38h20.583a3.956 3.956 0 0 0 3.981-3.981 3.956 3.956 0 0 0-3.98-3.98H81.7V16.752a4.344 4.344 0 0 0-4.378-4.377 4.344 4.344 0 0 0-4.379 4.377v31.39zM111.248 52.521h22.347c2.16 0 3.924-1.706 3.924-3.867a3.931 3.931 0 0 0-3.924-3.923H115.57v-8.359h15.182c2.16 0 3.924-1.706 3.924-3.868a3.931 3.931 0 0 0-3.924-3.923H115.57v-8.075h17.74c2.162 0 3.925-1.706 3.925-3.866a3.932 3.932 0 0 0-3.925-3.924h-22.062a4.345 4.345 0 0 0-4.38 4.38v31.046a4.345 4.345 0 0 0 4.38 4.38M181.212 48.654c0-.568-.17-1.137-.455-1.763L166.882 15.56c-.966-2.16-2.672-3.468-5.06-3.468h-.512c-2.389 0-4.15 1.308-5.118 3.468l-13.875 31.332c-.284.626-.512 1.251-.512 1.877 0 2.274 1.763 4.094 4.038 4.094 1.82 0 3.298-1.023 4.037-2.729l2.786-6.54h17.514l2.673 6.255c.796 1.82 2.161 3.014 4.208 3.014 2.331 0 4.151-1.877 4.151-4.208zM166.94 35.86h-11.03l5.514-13.136 5.516 13.136zM186.512 48.483a4.346 4.346 0 0 0 4.379 4.38 4.345 4.345 0 0 0 4.378-4.38V37.11h15.353a3.956 3.956 0 0 0 3.98-3.98 3.957 3.957 0 0 0-3.98-3.98h-15.353v-8.473h17.912a3.956 3.956 0 0 0 3.98-3.98 3.956 3.956 0 0 0-3.98-3.98h-22.29a4.344 4.344 0 0 0-4.38 4.377v31.39z"/>
    </g>
</svg>
