<svg xmlns="http://www.w3.org/2000/svg" xmlns:xlink="http://www.w3.org/1999/xlink" width="76" height="91" viewBox="0 0 76 91">
    <defs>
        <path id="a" d="M.977.716h7.822v7.106H.977z"/>
        <path id="c" d="M8.06 6H.841V.667H8.06z"/>
    </defs>
    <g fill="none" fill-rule="evenodd">
        <path fill="#FEFEFE" d="M55.974 51.165c-2.525-5.44-10.996-11.58-19.173-11.172l-.006.005a42.125 42.125 0 0 1-1.833 2.077c-.675.715-1.4 1.344-2.164 1.905l-.003.004c4.637-2.11 17.37 2.104 23.18 7.181M56.977 35.294c-1.885-4.271-6.394-8.198-11.778-8.49a108.527 108.527 0 0 1-2.216 4.085c4.093-.815 10.912 1.907 13.994 4.405M8.51 48.845l-.118.007c-9.218.55-10.466 3.053-5.577 7.374.563-3.687 16.27-2.162 33.157 3.493 23.173 7.76 47.486 20.183 35.155 21.5h.007c21.68-.773-35.175-32.616-62.624-32.374"/>
        <path fill="#FEFEFE" d="M61.908 62.54c-.038-.043-11.502-13.96-31.936-16.867l-.013.003c-3.29 1.575-7.076 2.254-10.984 2.603l-.005.001c15.481-.112 32.212 6.01 42.938 14.26M58.455 28.554c-.866-3.154-6.527-8.238-10.025-8.38l-.004.007a207.368 207.368 0 0 1-1.969 4.124c4.09-.813 8.917 1.75 11.998 4.249M59.18 80.031c7.578-3.42-38.782-24.678-52.424-20.755a.022.022 0 0 1 .008.005l8.154 5.142c6.932-1.872 47.057 11.958 44.262 15.608"/>
        <g transform="translate(55 .284)">
            <mask id="b" fill="#fff">
                <use xlink:href="#a"/>
            </mask>
            <path fill="#FEFEFE" d="M6.653.896C4.665.172 2.843 1.673.977 4.545c3.859-.681 6.09.721 7.614 3.277.516-3.662.143-6.167-1.938-6.926" mask="url(#b)"/>
        </g>
        <path fill="#FEFEFE" d="M60.276 21.652c-.76-3.148-4.494-7.196-8.93-7.78l-1.9 4.158c4.092-.819 7.747 1.122 10.83 3.622M26.03 73.938c4.454-.332 14.613 3.063 18.38 4.974-1.598-4.497-18.525-10.614-22.36-9.96 2.046 1.472 3.264 3.183 3.98 4.986"/>
        <g transform="translate(26 84.284)">
            <mask id="d" fill="#fff">
                <use xlink:href="#c"/>
            </mask>
            <path fill="#FEFEFE" d="M3.304 5.772C5.195 6.46 6.63 5.52 8.06 3.923 5.506.902 2.692.438.842.753c.006 2.407.413 4.276 2.462 5.02" mask="url(#d)"/>
        </g>
        <path fill="#FEFEFE" d="M26.846 77.225c.158 1.282.218 3.153.182 4.389 3.743-1.248 8.142.666 11.052 1.595-2.195-2.737-4.946-5.59-11.234-5.984M56.012 41.91c-2.982-5.77-9.873-9.203-14.482-8.576a65.656 65.656 0 0 1-2.75 4.106l-.008.013c3.714-.705 10.903.065 17.24 4.457M54.513 7.325a83.813 83.813 0 0 0-1.886 3.746c4.092-.819 6.27 1.863 9.352 4.363-.02-3.9-3.327-7.772-7.466-8.109"/>
    </g>
</svg>
