<svg xmlns="http://www.w3.org/2000/svg" xmlns:xlink="http://www.w3.org/1999/xlink" width="172" height="55" viewBox="0 0 172 55">
    <defs>
        <path id="a" d="M.543.448h4.345v4.441H.543V.447z"/>
        <path id="c" d="M4.477 4H.467V.445h4.01V4z"/>
    </defs>
    <g fill="none" fill-rule="evenodd">
        <path fill="#3BB049" d="M34 31c-1.525-3.403-6.642-7.243-11.58-6.988l-.004.003c-.358.449-.727.883-1.107 1.3-.408.447-.846.84-1.307 1.19l-.002.003c2.8-1.32 10.49 1.316 14 4.492M35 21c-1.212-2.515-4.112-4.828-7.575-5-.455.807-.93 1.612-1.425 2.406 2.632-.48 7.018 1.123 9 2.594M5.153 30l-.071.005c-5.583.34-6.338 1.886-3.378 4.555.341-2.277 9.854-1.335 20.08 2.158C35.82 41.512 50.544 49.186 43.076 50h.004c13.13-.478-21.302-20.149-37.926-20"/>
        <path fill="#3BB049" d="M38 38c-.023-.025-6.965-8.277-19.338-10l-.008.002c-1.992.934-4.285 1.336-6.651 1.543H12c9.374-.066 19.505 3.563 26 8.455M35 17c-.505-1.882-3.808-4.915-5.849-5l-.002.004c-.368.81-.75 1.633-1.149 2.46 2.386-.484 5.202 1.046 7 2.536M35.5 49C40.054 46.906 12.197 33.893 4 36.294l.005.004 4.9 3.147C13.07 38.3 37.18 46.765 35.5 49"/>
        <g transform="translate(34)">
            <mask id="b" fill="#fff">
                <use xlink:href="#a"/>
            </mask>
            <path fill="#3BB049" d="M3.696.56C2.592.108 1.58 1.045.543 2.84c2.144-.425 3.383.452 4.23 2.05.286-2.29.08-3.856-1.077-4.33" mask="url(#b)"/>
        </g>
        <path fill="#3BB049" d="M37 13c-.491-2.023-2.905-4.625-5.772-5L30 10.672c2.645-.526 5.007.721 7 2.328M15.492 45.018C18.28 44.819 24.641 46.855 27 48c-1.001-2.696-11.599-6.363-14-5.971 1.281.882 2.044 1.908 2.492 2.989"/>
        <g transform="translate(16 51)">
            <mask id="d" fill="#fff">
                <use xlink:href="#c"/>
            </mask>
            <path fill="#3BB049" d="M1.836 3.848c1.05.458 1.847-.168 2.641-1.232C3.06.6 1.496.292.467.5c.004 1.605.23 2.85 1.369 3.347" mask="url(#d)"/>
        </g>
        <path fill="#3BB049" d="M16 47c.098.857.136 2.108.113 2.934C18.446 49.1 21.187 50.379 23 51c-1.368-1.83-3.082-3.736-7-4M35 25c-1.903-3.336-6.3-5.32-9.24-4.958-.557.816-1.141 1.611-1.755 2.374l-.005.008c2.37-.408 6.957.037 11 2.576M33.21 4A50.92 50.92 0 0 0 32 6.31c2.625-.505 4.022 1.149 6 2.69-.013-2.405-2.135-4.792-4.79-5M74 16l-9.508 24h-4.984L50 16h4.429c.477 0 .863.113 1.156.338.293.225.516.513.667.864l4.592 12.849c.218.56.429 1.172.635 1.836.207.665.401 1.359.586 2.084.152-.725.323-1.419.513-2.084.19-.664.394-1.276.611-1.836l4.56-12.849c.118-.306.333-.584.642-.831.31-.247.692-.371 1.148-.371H74zM83.452 28.903a4.71 4.71 0 0 0-.157-1.212 2.964 2.964 0 0 0-.507-1.052 2.594 2.594 0 0 0-.923-.749c-.382-.19-.846-.286-1.39-.286-.96 0-1.714.284-2.258.85-.546.567-.905 1.383-1.08 2.45h6.315zm-6.38 3.032c.163 1.46.594 2.517 1.292 3.174.697.656 1.598.985 2.7.985.588 0 1.096-.074 1.52-.22a7.488 7.488 0 0 0 1.137-.487c.333-.18.638-.343.916-.489.279-.145.57-.22.876-.22.403 0 .708.153.916.456l1.472 1.868a7.575 7.575 0 0 1-1.693 1.508 8.72 8.72 0 0 1-1.865.91 9.963 9.963 0 0 1-1.914.454c-.637.084-1.246.126-1.824.126-1.189 0-2.304-.2-3.345-.598a7.655 7.655 0 0 1-2.732-1.776c-.78-.785-1.396-1.762-1.849-2.93-.453-1.167-.679-2.525-.679-4.075 0-1.166.193-2.272.581-3.317a8.21 8.21 0 0 1 1.67-2.744 7.95 7.95 0 0 1 2.632-1.869c1.03-.46 2.195-.691 3.493-.691 1.123 0 2.15.18 3.084.539a6.69 6.69 0 0 1 2.405 1.566c.67.685 1.194 1.524 1.57 2.517.376.994.565 2.119.565 3.377 0 .392-.017.712-.05.958a1.55 1.55 0 0 1-.18.591.69.69 0 0 1-.351.303 1.596 1.596 0 0 1-.565.084H77.07zM100.99 27.194c-.378-.43-.786-.73-1.227-.9a3.812 3.812 0 0 0-1.391-.256c-.463 0-.89.093-1.276.28-.388.187-.725.487-1.01.9-.287.414-.51.951-.672 1.612-.16.66-.243 1.46-.243 2.396 0 .903.066 1.663.195 2.28.13.617.31 1.116.541 1.495.232.38.51.653.832.818.324.165.684.249 1.084.249.366 0 .697-.037.993-.109.297-.07.569-.173.817-.305.247-.133.482-.3.703-.504a6.9 6.9 0 0 0 .654-.702v-7.254zM106 15v24.735h-3.103c-.624 0-1.034-.286-1.228-.86l-.388-1.304c-.334.363-.684.693-1.05.99a6.614 6.614 0 0 1-1.188.77c-.427.215-.884.38-1.374.496-.49.115-1.021.173-1.593.173a5.064 5.064 0 0 1-2.424-.596c-.743-.396-1.384-.969-1.923-1.718-.539-.748-.961-1.666-1.268-2.75-.307-1.086-.461-2.323-.461-3.71 0-1.278.171-2.465.517-3.561.345-1.095.832-2.043 1.462-2.842a6.835 6.835 0 0 1 2.272-1.875c.883-.452 1.858-.678 2.925-.678.873 0 1.605.126 2.199.38a5.967 5.967 0 0 1 1.615 1.024V15H106zM118.035 36.127c1.21 0 2.102-.423 2.674-1.271.571-.848.857-2.136.857-3.865 0-1.727-.286-3.013-.857-3.855-.572-.842-1.463-1.263-2.674-1.263-1.246 0-2.157.421-2.735 1.263-.578.842-.866 2.128-.866 3.855 0 1.73.288 3.017.866 3.865.578.848 1.489 1.271 2.735 1.271m0-14.127c1.334 0 2.552.208 3.65.624 1.098.415 2.04 1.01 2.827 1.784.787.775 1.399 1.714 1.835 2.82.435 1.106.653 2.35.653 3.73 0 1.392-.218 2.646-.653 3.763-.436 1.117-1.048 2.066-1.835 2.845a8.04 8.04 0 0 1-2.827 1.802c-1.098.421-2.316.632-3.65.632-1.348 0-2.574-.21-3.677-.632a8.205 8.205 0 0 1-2.853-1.802c-.798-.779-1.415-1.728-1.851-2.845-.436-1.117-.654-2.37-.654-3.763 0-1.38.218-2.624.654-3.73.436-1.106 1.053-2.045 1.851-2.82a8.182 8.182 0 0 1 2.853-1.784c1.103-.416 2.329-.624 3.677-.624M129 39V22.259h3.196c.643 0 1.065.28 1.264.84l.283.903c.289-.29.588-.557.9-.798.31-.243.646-.453 1.006-.631.36-.177.75-.317 1.165-.42a5.716 5.716 0 0 1 1.374-.153c1.043 0 1.906.262 2.588.783.682.522 1.2 1.22 1.556 2.091.289-.516.64-.958 1.057-1.324a5.677 5.677 0 0 1 1.348-.887 6.659 6.659 0 0 1 1.531-.5 8.182 8.182 0 0 1 1.606-.163c.989 0 1.865.144 2.631.429.765.285 1.407.7 1.923 1.242.515.544.906 1.211 1.172 2.002.267.791.4 1.688.4 2.688V39h-5.16V28.36c0-1.731-.766-2.598-2.297-2.598-.699 0-1.279.224-1.74.67-.46.447-.69 1.09-.69 1.929V39h-5.16V28.36c0-.957-.194-1.63-.583-2.016-.388-.388-.96-.582-1.714-.582-.465 0-.907.103-1.323.306a4.82 4.82 0 0 0-1.173.824V39H129zM170.985 15l-4.253 4.24c-.251.246-.49.42-.72.522-.23.103-.535.154-.916.154h-3.043l2.225-3.949c.185-.312.404-.55.655-.717.25-.166.632-.25 1.145-.25h4.907zm-3.533 13.378c0-.397-.052-.784-.156-1.16a2.787 2.787 0 0 0-.507-1.008 2.58 2.58 0 0 0-.924-.717c-.381-.183-.845-.274-1.391-.274-.96 0-1.712.272-2.257.814-.546.542-.905 1.324-1.08 2.345h6.315zm-6.381 2.902c.164 1.396.595 2.41 1.293 3.038.698.628 1.597.943 2.7.943.588 0 1.095-.07 1.52-.21.426-.14.805-.295 1.138-.467.332-.172.638-.328.916-.468.279-.139.57-.21.875-.21.404 0 .71.145.916.436l1.472 1.789a7.504 7.504 0 0 1-1.692 1.442 8.917 8.917 0 0 1-1.866.872 10.29 10.29 0 0 1-1.913.434c-.638.081-1.246.121-1.825.121a9.657 9.657 0 0 1-3.345-.572 7.71 7.71 0 0 1-2.733-1.7c-.78-.752-1.396-1.687-1.848-2.805-.453-1.118-.679-2.418-.679-3.901a8.74 8.74 0 0 1 .58-3.175 7.818 7.818 0 0 1 1.67-2.628c.725-.751 1.602-1.347 2.633-1.789 1.03-.44 2.195-.66 3.493-.66 1.123 0 2.151.171 3.084.515a6.737 6.737 0 0 1 2.405 1.5c.67.655 1.194 1.458 1.57 2.409.377.952.565 2.028.565 3.232 0 .376-.016.682-.049.918a1.448 1.448 0 0 1-.18.565.684.684 0 0 1-.352.29c-.147.054-.335.08-.565.08h-9.783z"/>
    </g>
</svg>
