<svg xmlns="http://www.w3.org/2000/svg" xmlns:xlink="http://www.w3.org/1999/xlink" width="20" height="20" viewBox="0 0 20 20">
    <defs>
        <path id="a" d="M0 0v17h17V0z"/>
    </defs>
    <g fill="none" fill-rule="evenodd" transform="translate(3 3)">
        <mask id="b" fill="#fff">
            <use xlink:href="#a"/>
        </mask>
        <path fill="#231F20" d="M7.376 12.438a5.068 5.068 0 0 1-5.062-5.062 5.068 5.068 0 0 1 5.062-5.062 5.068 5.068 0 0 1 5.062 5.062c0 2.79-2.271 5.061-5.062 5.062m9.26 2.439l-3.109-3.109a1.162 1.162 0 0 0-.15-.121 7.33 7.33 0 0 0 1.374-4.271C14.751 3.309 11.443 0 7.376 0S0 3.309 0 7.376s3.31 7.376 7.376 7.376a7.329 7.329 0 0 0 4.27-1.374c.039.051.076.103.122.149l3.11 3.109c.234.234.546.364.878.364.333 0 .645-.13.88-.364.235-.235.364-.548.364-.88 0-.332-.13-.645-.364-.88" mask="url(#b)"/>
    </g>
</svg>
